<?xml version="1.0" encoding="utf-8"?>
<!-- Svg Vector Icons : http://www.onlinewebfonts.com/icon -->
<!DOCTYPE svg PUBLIC "-//W3C//DTD SVG 1.1//EN" "http://www.w3.org/Graphics/SVG/1.1/DTD/svg11.dtd">
<svg version="1.1" xmlns="http://www.w3.org/2000/svg" xmlns:xlink="http://www.w3.org/1999/xlink" x="0px" y="0px" viewBox="0 0 1000 1000" enable-background="new 0 0 1000 1000" xml:space="preserve">
<metadata> Svg Vector Icons : http://www.onlinewebfonts.com/icon </metadata>
<g><path d="M284.2,225.8c0,119.2,96.6,215.8,215.8,215.8c119.2,0,215.8-96.6,215.8-215.8S619.2,10,500,10C380.8,10,284.2,106.6,284.2,225.8L284.2,225.8z"/><path d="M709.7,490.7c-10.8-4.8-23.1-2.8-32.8,3.9c-50.5,35.2-111.3,56-176.9,56c-65.6,0-126.4-20.8-176.9-56c-9.7-6.8-22.1-8.8-32.8-3.9c-130.1,58.5-218.1,174.7-218.1,335c0,219.2,855.7,219.2,855.7,0C927.9,665.4,839.8,549.2,709.7,490.7z"/></g>
</svg>